<svg viewBox="0 0 495.78 415" xmlns="http://www.w3.org/2000/svg"><path d="M433.24 0L367 40.13c-.92.56-1.81 1.15-2.69 1.75l-.8.57c-.61.44-1.22.89-1.81 1.35l-.82.65c-.62.5-1.22 1-1.81 1.54l-.58.51c-.78.72-1.54 1.44-2.26 2.19l-.26.28c-.64.66-1.26 1.34-1.85 2l-.54.64c-.51.61-1 1.23-1.49 1.86l-.47.61q-.88 1.2-1.71 2.43a.43.43 0 010 .07c-.6.91-1.17 1.84-1.71 2.78 0 .06-.07.13-.11.2-.48.84-.93 1.7-1.37 2.56-.07.16-.15.31-.22.46-.42.86-.81 1.72-1.19 2.6l-.1.24a54.5 54.5 0 00-2.21 6.17c-.29 1-.55 2.06-.78 3.1v.17a53.83 53.83 0 004.27 35.25l-53.4-56.38-.1-.1-2.45-2.63A189.72 189.72 0 00315 18.84a155.92 155.92 0 008.87-17c.27-.6.52-1.19.78-1.79z" fill="#fff"/><path d="M83.9 357.7a3.59 3.59 0 015.24.49l2.22 2.9a8 8 0 01.73 1.13l1.13 1.47a8.15 8.15 0 01-.64 10.7 117.38 117.38 0 00-15.82 20.51l-1 1.58a132.86 132.86 0 00-6.64 12.7Q67.89 412 66.66 415H47.88a152.76 152.76 0 0114.9-31.47c1.77-2.83 3.54-5.43 5.27-7.82A116.28 116.28 0 0183.9 357.7zm258-136.34l-.19.28a4.46 4.46 0 01-3.09 1.91l-.11.15a4.47 4.47 0 01-6.25 1l-44.17-32.08a129.08 129.08 0 01-16.14-13.87c-.4-.41-.82-.84-1.24-1.29a130.37 130.37 0 01-11.51-13.77c-1.15-1.51-2.28-3-3.38-4.54l-1 .29c-14 3.53-20.13-2.85-27.84-4.37l-1.17-.18h-.38c-.28 0-.57-.05-.86-.06h-1.73a11.29 11.29 0 00-1.26.14l-.5.09q-.44.07-.87.18l-.58.14c-.31.08-.64.18-1 .29l-.5.16a25.12 25.12 0 00-3.42 1.51 25.82 25.82 0 01-8.84 2.57c-7.06.82-14.54-.58-18.51-2.75-1.88-1-5.84.85-9.4 2.57-1.28.62-2.51 1.21-3.58 1.64a34.07 34.07 0 01-13.18 2.34h-1.05l-1.37-.09-.57-.05-.79-.08c-.26 0-.51-.06-.76-.09l-.58-.08-.91-.15-.35-.07a29.27 29.27 0 01-4.82-1.4c-.64-.24-1.27-.49-1.88-.79a18.06 18.06 0 01-3-1.8c-3.23-2.4-5.23-6.11-4.23-9.12 1.21-3.68 7.14-4.18 7.48-8.28.4-4.94-4.94-8.62-9.92-10-5.23-1.45-10.53-1.12-15.83-2.11-9.36-1.74-19.2-10.33-23.9-18.18a73.12 73.12 0 01-3.59-6.42c-.76-1.61-1.44-3.38-1-4.92.79-2.9 4.58-3.18 7.4-2.52 4.44 1 7.8 4.92 11.49 7.35a20 20 0 007.23 2.83c1.92.39 3.84.65 5.72 1.17a14.14 14.14 0 015.23 2.61c1.84 1.48 3.34 3.29 5.21 4.72a11.17 11.17 0 007.12 2.3c2.08 0 4.14-.33 6.2-.21 3.17.17 6.45 1.34 7.45 4.51a10.53 10.53 0 001.17 3.09 5.49 5.49 0 002.64 1.84c1.71.63 3.57.85 5.23 1.63a5.71 5.71 0 012.91 3.13c.91 2.08 1.77 4.29 4.68 4.5 2.47.18 4.78-1 6.82-2s4-1.81 6.06-2.59c3.17-1.2 6.94-2.69 10.44-1.77 3.19.84 3.77 3.64 3.9 6.31.09 1.64.06 3.61 1.49 4.89 2.07 1.86 14.58-9.71 23.77-10.44s7.14 11 14 9.16a26 26 0 004.72-1.81c-.23-.53-.46-1.05-.68-1.58-.91-2.16-1.74-4.35-2.53-6.57a1.8 1.8 0 00-.08-.21 1.77 1.77 0 00-.06-.17c-.09-.27-.19-.53-.28-.8a10 10 0 017-12.93 4.44 4.44 0 014.27 1.19 4.49 4.49 0 011.12 1.9c.57 1.94 1.21 3.86 1.89 5.77.59 1.55 1.22 3.09 1.87 4.61 1.35-1.12 2.69-2.26 4-3.41 5.61-4.78 11.35-9.57 17.59-12.48 10-5.48 17.16-3.54 17.55 5.07v1.57c0 .49-.06 1-.12 1.55v.3c-.07.54-.15 1.09-.26 1.66 0 .26-.1.52-.16.79-2.26 10.51-11.05 19.31-21 25.53-1.4.87-2.83 1.69-4.27 2.46a115.5 115.5 0 0027.83 26.76l40.54 27.59a10 10 0 012.66 13.98zm-4.58-62l5.32-.43a29.61 29.61 0 01-2.84-3.51zM152.37 4.45a135.52 135.52 0 008.06 11.84A149 149 0 00176 33.73 157.86 157.86 0 00194.18 0h-44.37c.52.94 1.05 1.89 1.62 2.86.3.52.62 1.05.94 1.59zm15.88 386.3l7.51-4.93a38.65 38.65 0 005.16 1.82c-1.73-.57-3.45-1.17-5.16-1.82zm161.69-106.14q-.06 1.29-.15 2.58.12-1.32.15-2.58z" fill="none"/><path d="M257.58 130c-.65-1.52-1.28-3.06-1.87-4.61.55 1.58 1.15 3.15 1.77 4.7zm-15.85.45a1.8 1.8 0 01.08.21c0-.13-.09-.25-.14-.38a1.77 1.77 0 01.06.17zm97.51 76.98l-40.54-27.59a115.5 115.5 0 01-27.83-26.76l-.74.38a115.5 115.5 0 0026.68 27.14l39.67 28.81a10 10 0 012.23 14l-.1.13a4.46 4.46 0 003.09-1.91l.19-.28a10 10 0 00-2.65-13.92z" fill="#ffe3ac"/><path d="M223.12 154.78h1a8.34 8.34 0 00-1 0z" fill="#e11900"/><path d="M218.09 155.81c10.74-8.41 23.55 1.68 35.8.63-6.3-9-10.76-16.86-8.88-17.62a26 26 0 01-4.72 1.81c-6.89 1.85-4.83-9.89-14-9.16s-21.7 12.3-23.77 10.44c-1.43-1.28-1.4-3.25-1.49-4.89-.13-2.67-.71-5.47-3.9-6.31-3.5-.92-7.27.57-10.44 1.77q-3.07 1.17-6.06 2.59c-2 1-4.35 2.14-6.82 2-2.91-.21-3.77-2.42-4.68-4.5a5.71 5.71 0 00-2.91-3.13c-1.66-.78-3.52-1-5.23-1.63a5.49 5.49 0 01-2.64-1.84 10.53 10.53 0 01-1.17-3.09c-1-3.17-4.28-4.34-7.45-4.51-2.06-.12-4.12.21-6.2.21a11.17 11.17 0 01-7.12-2.3c-1.87-1.43-3.37-3.24-5.21-4.72a14.14 14.14 0 00-5.2-2.66c-1.88-.52-3.8-.78-5.72-1.17a20 20 0 01-7.28-2.83c-3.69-2.43-7-6.32-11.49-7.35-2.82-.66-6.61-.38-7.4 2.52-.42 1.54.26 3.31 1 4.92a73.12 73.12 0 003.55 6.44c4.7 7.85 14.54 16.44 23.9 18.18 5.3 1 10.6.66 15.83 2.11 5 1.37 10.32 5.05 9.92 10-.34 4.1-6.27 4.6-7.48 8.28-1 3 1 6.72 4.23 9.12a18.06 18.06 0 003 1.8c.61.3 1.24.55 1.88.79 12.37 4.63 21.24-17.49 33.85-12.09s12.2 11.37 22 10.26a25.82 25.82 0 008.84-2.57 25.12 25.12 0 013.42-1.51H218z" fill="#e11900"/><path d="M221.06 155q-.44.07-.87.18.44-.08.87-.18zm-63.62 8.42c-.26 0-.51-.06-.76-.09.25.03.5.07.76.09zm-1.34-.17l-.91-.15zm63.51-7.91c-.31.08-.64.18-1 .29.39-.11.69-.21 1-.29zm-60.81 8.21l-.57-.05zm137.96-44.33a12.84 12.84 0 010 1.52c.03-.53.02-1.04 0-1.52zm0 1.57c0 .49-.06 1-.12 1.55.06-.54.1-1.06.12-1.55zm-.13-3.02c.06.46.11.93.13 1.43-.39-8.61-7.54-10.55-17.55-5.07-6.24 2.91-12 7.7-17.59 12.48 16.67 37.17 34.02-7.89 35.01-8.84zm-.03 4.87zm-69.66 32.42l-1.17-.18zm-72.1 7.94a29.27 29.27 0 01-4.84-1.3 29.27 29.27 0 004.84 1.3zm67.98-8.21a11.29 11.29 0 00-1.26.14 11.29 11.29 0 011.26-.14zm2.57.05c-.28 0-.57-.05-.86-.06.29.01.58.03.86.06z" fill="#e11900"/><path d="M218.09 155.81h.05l.5-.16c.32-.11.65-.21 1-.29l.58-.14q.44-.1.87-.18l.5-.09a11.29 11.29 0 011.26-.14h1.73c.29 0 .58 0 .86.06h.38l1.17.18c7.71 1.52 13.8 7.9 27.84 4.37l1-.29c-.65-.91-1.3-1.81-1.92-2.7-12.27 1.06-25.08-9.03-35.82-.62zm52.04-2.35l.74-.38c1.44-.77 2.87-1.59 4.27-2.46 10-6.22 18.78-15 21-25.53.06-.27.11-.53.16-.79.11-.57.19-1.12.26-1.66v-.3c.06-.53.1-1.06.12-1.55v-.05a12.84 12.84 0 000-1.52c0-.5-.07-1-.13-1.43-1 1-18.34 46-35 8.84-1.35 1.15-2.69 2.29-4 3.41l-.1.09a116.31 116.31 0 0012.68 23.33z" fill="#ab1300"/><path d="M270.7 177.45a178.91 178.91 0 01-11.51-13.77 130.37 130.37 0 0011.51 13.77zm65.78 31.96l-39.67-28.81a115.65 115.65 0 01-39.33-50.49c-.62-1.55-1.22-3.12-1.77-4.7-.68-1.91-1.32-3.83-1.89-5.77a4.49 4.49 0 00-1.12-1.9 4.44 4.44 0 00-4.27-1.19 10 10 0 00-7 12.93c.09.27.19.53.28.8s.1.25.14.38c.79 2.22 1.62 4.41 2.53 6.57.22.53.45 1.05.68 1.58 3.57-1.43 7.44-2.89 12.3 11.89a12.22 12.22 0 008.72 8c3.8.92 7.9 1.9 10.6 5.52 2.05 3.09 3.39 7.48.89 10.66a10.4 10.4 0 01-5.59 3.82 129.08 129.08 0 0016.14 13.87l44.17 32.08a4.47 4.47 0 006.25-1l.11-.15.1-.13a10 10 0 00-2.27-13.96z" fill="#ffc043"/><path d="M277.53 174.92c2.5-3.18 1.16-7.57-.89-10.66-2.7-3.62-6.8-4.6-10.6-5.52a12.22 12.22 0 01-8.72-8c-4.86-14.78-8.73-13.32-12.3-11.89-1.88.76 2.58 8.65 8.88 17.62.62.89 1.27 1.79 1.92 2.7 1.1 1.51 2.23 3 3.38 4.54a178.91 178.91 0 0011.51 13.77c.42.45.84.88 1.24 1.29a10.4 10.4 0 005.58-3.85z" fill="#e11900"/><path d="M183.84 149.61c-12.61-5.4-21.48 16.72-33.85 12.09a29.27 29.27 0 004.85 1.33l.35.07.91.15.58.08c.25 0 .5.07.76.09l.79.08.57.05 1.37.09h1.05a34.07 34.07 0 0013.18-2.34c1.07-.43 2.3-1 3.58-1.64 3.56-1.72 7.52-3.61 9.4-2.57 4 2.17 11.45 3.57 18.51 2.75-9.89 1.16-9.41-4.84-22.05-10.23z" fill="#ab1300"/><path d="M308.34 0q-.94 2-2 3.9-1.82 3.47-3.89 7c-1.33 2.23-2.69 4.39-4.07 6.46a176.55 176.55 0 01-18.09 22.9L242.28 0zm124.73 196.34h-2.13c-1 0-2 0-3-.05l59.92 63.35q4-3.43 7.89-6.41v-87.12L459 188.4a54.91 54.91 0 01-25.93 7.94z" fill="#fff"/><path d="M296.91 12.83L284.78 0H282l13.44 14.21L274.53 34l1.37 1.45 20.94-19.8 1.56 1.65L316 35.87l-21 19.84 1.38 1.46 21-19.85 19.12 20.21-21 19.85 1.38 1.45 21-19.84 19.04 20.21L335.94 99l1.37 1.45 21-19.84 19.11 20.21-20.94 19.8 1.38 1.45 20.93-19.8 19.12 20.21L377 142.33l1.37 1.45 20.9-19.78 19.11 20.21L397.45 164l1.37 1.45 20.94-19.8 19.11 20.21-20.94 19.8 1.38 1.46 20.93-19.8 19.12 20.21-21 19.84 1.38 1.45 21-19.84 19.11 20.21-21 19.84 1.37 1.45 21-19.84L495.78 226v-2.91l-13.11-13.86 13.11-12.4v-2.75l-14.48 13.7-19.12-20.18 20.21-19.12 13.39 14.16v-2.92l-11.93-12.61 11.93-11.29v-2.75l-13.31 12.58-19.11-20.21 20.21-19.11 12.21 12.91v-2.91L485 125l10.76-10.18V112l-12.11 11.5-19.12-20.21 20.21-19.11 11 11.67v-2.92L486.2 82.8l9.58-9.06V71l-11 10.36-19.07-20.22L485.92 42l9.86 10.42v-2.88l-8.41-8.89 8.41-7.95V30L486 39.2 466.89 19 487 0h-2.91l-18.58 17.53L448.93 0h-2.75l17.88 18.91L443.85 38l-19.11-20.19L443.57 0h-2.92l-17.29 16.36L407.89 0h-2.75l16.77 17.73-20.21 19.12-19.11-20.21L400.18 0h-2.92l-16.05 15.18L366.86 0h-2.76l15.66 16.56-20.21 19.11-19.11-20.21L356.78 0h-2.91l-14.81 14-13.25-14h-2.75l14.55 15.38L317.4 34.5l-19.11-20.21L313.39 0h-2.91l-4.12 3.9zm62.84 66.45L380 60.16l19.11 20.21-20.25 19.12zm20.49 21.66l20.21-19.11L419.56 102l-20.21 19.11zm40.77-.28L401.9 80.45l20.21-19.11 19.11 20.21zM442.59 83l19.12 20.21-20.21 19.12-19.11-20.21zm-41.87 39.6l20.21-19.11L440 123.7l-20.2 19.11zm20.49 21.67l20.21-19.12 19.11 20.21-20.21 19.12zM481 167l-20.21 19.11-19.09-20.18 20.21-19.11zm1.17-42.15L462 144l-19.12-20.21 20.21-19.11zm1.18-42.16l-20.21 19.12-19.09-20.18 20.21-19.12zm-17.92-62.33l19.12 20.21-20.21 19.12-19.12-20.21zm-2.55 40.7l-20.21 19.11L423.56 60l20.21-19.11zm-39.6-41.87L442.4 39.4l-20.21 19.11-19.12-20.21zm-2.55 40.69L400.52 79l-19.11-20.21 20.21-19.12zM381.13 18l19.12 20.21L380 57.33l-19.08-20.21zm-2.55 40.7l-20.21 19.12-19.11-20.21 20.21-19.11zM339 16.84l19.1 20.21-20.21 19.11L318.77 36z" fill="#ffd7d2"/><path d="M403 185.59l-.34-.15-.86-.4-.59-.27a52.74 52.74 0 01-12.67-8.66A52.75 52.75 0 00407 191l.59.28.84.39.37.16a53.63 53.63 0 0019.19 4.5l-5.91-6.25a53.44 53.44 0 01-19.08-4.49zm-24.39-21.86h-.07a25.09 25.09 0 01-2.5 1.35l-.19.09h-.05a28.86 28.86 0 01-33.16-6.3l-5.32.43-2.93 4.7a1.46 1.46 0 01-.36.38l3.53 5.85a1.53 1.53 0 002.6 0l5.42-8.59a28.86 28.86 0 0036 9.82l-.06.23 1.86-1.13a54.37 54.37 0 01-4.24-6z" fill="#ffe3ac"/><path d="M427.29 190.08h-2.12c-1 0-2.07 0-3.11-.05l5.91 6.25c1 0 2 .06 3 .05h2.13a54.91 54.91 0 0025.9-7.93l36.81-22.29v-9.74l-42.61 25.77a54.8 54.8 0 01-25.91 7.94z" fill="#ffd7d2"/><path d="M481 167l-20.21 19.11-5.18-5.47-1.75 1.06 5.48 5.79-1.72 1.63c.44-.26.89-.49 1.33-.75l6.58-4 16.84-15.94 3.45 3.65 1.75-1.06-3.74-4 10.33-9.78-8.09 4.9-3.62 3.42-.74-.78-1.71 1.15z" fill="#ff6937"/><path d="M495.78 25.31l-18.89 11.44zM378.61 163.73l10.48-6.34-1.28.77zm48.25-29.21l-37.04 22.42v.01l45.42-27.5zm25.13-15.22l.01.01 20.89-12.65h-.01zm40.07-24.25l-6.78 4.1 10.5-6.35v-.01l-3.72 2.25z" fill="#ffe3ac"/><path d="M361.65 43.8zm2.61-1.92c.87-.6 1.77-1.19 2.69-1.75-.95.56-1.82 1.15-2.69 1.75zm-8.09 6.81zM359 46c.59-.52 1.19-1 1.81-1.54-.6.54-1.2 1.01-1.81 1.54zm-4.93 5zm-4.21 5.54q.83-1.23 1.71-2.43-.88 1.2-1.71 2.43zm-7.67 18.16c.23-1 .49-2.07.78-3.1-.29 1.03-.55 2.06-.78 3.1zm.81-3.11a54.5 54.5 0 012.15-6.14 54.5 54.5 0 00-2.15 6.14zm9-18.09c.48-.63 1-1.25 1.49-1.86-.49.61-.97 1.23-1.49 1.86zm-11.06 31.11a54.73 54.73 0 011.21-9.73 53.81 53.81 0 004.27 35.24c.7 1.42 1.45 2.83 2.29 4.22a15 15 0 015.08-20.65l142-86V0H476.2l-123 74.48a53.79 53.79 0 00-12.26 10.13zm4.28-19.4c.37-.88.77-1.74 1.19-2.6-.41.86-.81 1.72-1.19 2.6zm2.89-5.82zm-1.48 2.77c.43-.87.89-1.73 1.37-2.57-.48.84-.93 1.7-1.37 2.57zM401.79 185l.86.4zm-2.52-16.19a15.05 15.05 0 01-20.66-5.08l.52.85a54.37 54.37 0 004.24 6 52.13 52.13 0 005.18 5.51 52.74 52.74 0 0012.67 8.66 57.76 57.76 0 0015.15-6.33l79.41-48.07v-20zm25.9 21.34a54.52 54.52 0 01-22.17-4.56 53.44 53.44 0 0019.07 4.51c1.03.05 2.06.06 3.1.05zm1.41-.04h.71z" fill="#c14f29"/><path d="M484.11 99.86l-1.28 8.32-9.94-1.52L452 119.3l4.31 12.08-18 6.44-1.45-4.08h-.06l-1.53-4.31L389.82 157l-.73.44-10.48 6.34a15.05 15.05 0 0020.66 5.08l96.51-58.43V92.8l-10.5 6.35zm-135.4 14.48l24.7-15-1.9-.46 3.2-13 6.2 1.52 8.71 2.14L418 72.41l-2.49-7 12.61-4.51 1.58 4.41 47.21-28.57L495.8 25.3V7.73l-142 86a15 15 0 00-5.09 20.61z" fill="#fff2d9"/><path d="M367 40.13c-.92.56-1.82 1.15-2.69 1.75l-.8.57c-.61.44-1.22.89-1.81 1.35l-.82.65c-.62.5-1.22 1-1.81 1.54l-.58.51c-.78.72-1.54 1.44-2.27 2.19l-.26.28c-.63.67-1.25 1.34-1.84 2-.19.21-.36.43-.54.64-.51.61-1 1.23-1.49 1.86l-.47.61q-.88 1.2-1.71 2.43a.18.18 0 01-.05.07c-.59.91-1.16 1.84-1.7 2.78 0 .06-.07.13-.11.2-.48.84-.94 1.7-1.37 2.57l-.22.45c-.42.86-.82 1.72-1.19 2.6l-.1.24a54.5 54.5 0 00-2.17 6.17c-.29 1-.55 2.06-.78 3.1v.18a54.73 54.73 0 00-1.21 9.73 53.79 53.79 0 0112.24-10.13L476.2 0h-43zm34.22 144.63l.59.27.86.4.34.15a54.52 54.52 0 0022.18 4.56h2.12a54.8 54.8 0 0025.91-7.94l42.58-25.77v-26l-79.41 48.07a57.76 57.76 0 01-15.17 6.26z" fill="#ff6937"/><path d="M346.38 123.58l36.24-21.93-9.21-2.27-24.7 15h-.07a28.89 28.89 0 00-10.56 38.2 22.18 22.18 0 018.3-29zM376 165.12l-.19.09zm17.92-74.49l-1.2 4.9.24-.15 2.27-9.2 14.07-8.52-2.26 9.2 13.24-8.02-1.88-5.25-.42-1.18-28.36 17.16zm-15.38 73.14h.07l9.2-5.57c-3.08 1.8-8.67 5.19-9.27 5.57zm-.54-7.49l14.07-8.53-2.25 9.19 37-22.42 2.26-9.2-37.05 22.43-14.03 8.52-8.65 5.24a22.18 22.18 0 01-29.54-6.1 29.61 29.61 0 002.84 3.51 28.86 28.86 0 0033.16 6.3zm114.06-61.24l3.72-2.25v-7.82l-1.46.88zm-42.19 18.32l2.12 5.94 20.89-12.64-3.29-.51.9-5.87-20.84 12.62.17.48zm-20.19-48.03l2.3 6.44 12.11-7.34 2.26-9.2 14.08-8.52-2.26 9.2 9.92-6.01-.05-2.74 4.73-.09 22.44-13.59.57-2.3v-5.87l-18.89 11.44z" fill="#c14f29"/><path d="M392.39 146.55l-.3 1.19 37.05-22.43 1.89-7.7-.67-1.89 1.25-.44 1-4.1c-10.79 4.55-15.73.85-29 8.88a47.75 47.75 0 00-5.7 4l-5.52 22.45zm40.21-73.02l2.92 8.17-12.61 4.5-2.63-7.35-13.24 8-6 24.25c13.12-8.75 10.14-15.31 25-24.29a39 39 0 0113.24-5.36l-.21-9.74 3.23-.07 1.78-7.22L432 71.76zm63.18 11.44v-5.05l-1.46 5.93zM393 95.38l-.24.15-2 8.11-6.2-1.53-1.9-.46-36.24 21.93a22.18 22.18 0 00-8.28 29l3.69-.3-2 3.13a22.18 22.18 0 0029.54 6.1l8.65-5.24 1.48-6-1.88-5.27-1.09.68c-15.58 9.43-28.38-11.71-12.8-21.14 11-6.63 16.24-5.26 23.82-7.14zm94.49-48.62l.06 2.85c.27-.17.53-.34.82-.51 1.23-.75 2.38-1.38 3.48-1.94l3.36-13.68-22.44 13.59 2.92-.06zM454.36 71.4l4.59-.1.05 4.7c.73-.4 1.48-.82 2.26-1.29 8.75-5.3 11.3-9.76 14.61-14.32h-1.53l-6.07.13-.22-10.66-9.92 6zm-2.59 31.8l-5.13 1.8-.33-.92-1.59 6.48 3.64-1.3 1.29 3.6 20.84-12.62 1.13-7.37 1-6.62 9.24 1.42 2.85-11.59c-5.33.76-10.4 1.13-18.82 6.22a48.6 48.6 0 00-5.89 4.18l4.36 12.22z" fill="#ff6937"/><path d="M495.78 33.14v-1.96l-.57 2.3zm-10.92 61.8l-.75 4.92 1.17-.71 6.78-4.1v-.01l2.26-9.19-8.89 5.38z" fill="#662a16"/><path d="M491.85 47.16a41.28 41.28 0 013.93-1.76V33.14l-.57.34zm-9.97 40.55l4 .61-.45 2.91 8.89-5.38 1.46-5.93v-6.83a37.42 37.42 0 01-11 3z" fill="#993f21"/><path d="M426.86 134.52l8.38-5.07-2.3-6.44-3.82 2.31zm33.57-87.81l-14.08 8.52-2.26 9.2 14.08-8.52z" fill="#662a16"/><path d="M431.01 117.62l-1.89 7.7 3.82-2.31zm11.3-45.97l3.24-.07 8.81-.18 3.81-15.49-14.08 8.52zm2.41 38.95l1.59-6.48-.45-1.27a46 46 0 01-7 5.11 47.78 47.78 0 01-6.26 3.23l-1 4.1z" fill="#c14f29"/><path d="M389.82 156.94l2.25-9.19-14.07 8.53-2.2 8.95h.05l.19-.09a25.09 25.09 0 002.5-1.35c.6-.38 6.19-3.76 9.27-5.61l1.28-.77.73-.44zm19.48-79.28l-14.07 8.52-2.27 9.2 14.08-8.52z" fill="#662a16"/><path d="M407 86.86l-14 8.52-5.41 22a40.65 40.65 0 0011.43-5c.75-.46 1.44-.9 2.1-1.34zm-14.93 60.89l.3-1.19-12.59 4.5-.3-.83-1.48 6.04zm5.83-23.69c-4.8 3.95-6.79 7.51-9.55 11.18l4 11.27z" fill="#c14f29"/><path d="M488.37 49.1c-.29.17-.55.34-.82.51l.22 10.54-11.86.25c-3.31 4.56-5.86 9-14.61 14.32-.78.47-1.53.89-2.26 1.29l.18 8.69-13.39.3-6.47.13-.07-3.65a39 39 0 00-13.24 5.36c-14.83 9-11.85 15.54-25 24.29-.66.44-1.35.88-2.1 1.34a40.65 40.65 0 01-11.43 5c-7.58 1.88-12.86.51-23.82 7.14-15.58 9.43-2.78 30.57 12.8 21.14l1.09-.68-.05-.14-4.5-12.61 12.61-4.51 2.21 6.19.46 1.3c2.76-3.67 4.75-7.23 9.55-11.18a47.75 47.75 0 015.7-4c13.26-8 18.2-4.33 29-8.88a47.78 47.78 0 006.26-3.23 46 46 0 007-5.11l-3.72-10.43 5.13-1.83 12.62-4.51.14.4a48.6 48.6 0 015.88-4.14c8.42-5.09 13.49-5.46 18.82-6.22a37.42 37.42 0 0011-3V45.4a41.28 41.28 0 00-3.93 1.76c-1.02.56-2.17 1.19-3.4 1.94z" fill="#ffc043"/><path d="M382.62 101.65l1.9.46-6.8-1.67 3.19-13.01-6.2-1.52-3.2 13.01 1.9.46z" fill="#ffe3ac"/><path d="M454.75 87.92l4.51 12.61-7.49 2.67 12.62-4.5-4.36-12.22-.14-.4-12.62 4.51z" fill="#fff"/><path d="M446.64 105.04l5.13-1.84 7.49-2.67-4.51-12.61-7.48 2.67-5.13 1.83 3.72 10.43.45 1.27zm-66.86 46.02l12.59-4.5.02-.01-.01-.04-4.02-11.27-.47-1.3 2.3 6.43-12.62 4.5.05.14 1.86 5.22z" fill="#ffe3ac"/><path d="M471.62 92.91l13.24 2.03.57-3.71.45-2.91-4-.61-9.24-1.42zm4.07-45.9l5.74-.12.28 13.39-7.33.15 1.53-.03 11.86-.25-.22-10.54-.06-2.85z" fill="#fff"/><path d="M468.31 60.56l6.07-.13 7.33-.15-.28-13.39-5.74.12-2.92.06-4.73.09.05 2.74zm-22.76 11.02l-3.24.07-3.23.07.21 9.74.07 3.65 6.47-.14z" fill="#ffe3ac"/><path d="M454.36 71.4l-8.81.18.28 13.39 13.39-.27-.18-8.69-.09-4.71z" fill="#fff"/><path d="M418.4 73.59l12.62-4.51 1.59 4.45-.63-1.76-2.3-6.44-1.58-4.42-12.61 4.51 2.49 6.99z" fill="#ffe3ac"/><path d="M422.91 86.2l12.61-4.5-2.91-8.17-1.59-4.45-12.62 4.51 1.88 5.25zm8.94 33.59l17.97-6.41-.17-.48-1.29-3.6-3.64 1.3-13.13 4.69-1.25.44.67 1.89 1.93 5.39 2.3 6.44 1.53 4.31.06-.02z" fill="#fff"/><path d="M449.87 113.36l-.05.02-17.97 6.41 4.98 13.95 1.45 4.08 18.03-6.44-4.31-12.07-.01-.01z" fill="#ffe3ac"/><path d="M334.39 164l2.93-4.65 2.48-3.94 2-3.13-3.69.3-10.11.82a1.52 1.52 0 00-1.18 2.31l5 8.28a1.52 1.52 0 002.24.4 1.46 1.46 0 00.33-.39z" fill="#ff6937"/><path d="M484.86 94.94l-13.24-2.03-1.13 7.37-.9 5.87 3.29.51h.01l9.94 1.52 1.28-8.32z" fill="#ffe3ac"/><path d="M377.72 100.44l6.8 1.67 6.21 1.53 1.99-8.11 1.2-4.9-4.3-1.06-8.71-2.14zm12.47 39.93l-2.3-6.43-2.21-6.19-12.61 4.51 4.5 12.61z" fill="#fff"/><path d="M290.43 50.93a162.74 162.74 0 01-3.48 3.59 7.15 7.15 0 01-9.91.21L279 57l-.05-.05a7.15 7.15 0 0010.49.39c1.07-1.07 2.27-2.31 3.56-3.67z" fill="#ffe3ac"/><path d="M280.31 40.21c-2.25 2.42-4.2 4.37-5.65 5.77a4.17 4.17 0 00-.27 5.72l2.23 2.59a8.21 8.21 0 00.58.6 7.16 7.16 0 009.91-.22c1-1 2.22-2.25 3.47-3.58A189.72 189.72 0 00315 18.84 154.72 154.72 0 00324.64 0h-16.3q-2.64 5.42-5.87 10.85a174.76 174.76 0 01-22.16 29.36z" fill="#ffc043"/><path d="M466.1 308.25a4.18 4.18 0 01-4.12 1.92l.23.14a4.18 4.18 0 005.68-1.38A165.52 165.52 0 01495.78 275v-2.33a164.33 164.33 0 00-29.68 35.58z" fill="#ffe3ac"/><path d="M455.68 297a8.15 8.15 0 002.66 11.44l2.07 1.23a4.22 4.22 0 005.69-1.38 164.33 164.33 0 0129.68-35.57v-19.43q-3.91 3-7.89 6.41a177.16 177.16 0 00-32.21 37.3z" fill="#ffc043"/><path d="M141.11 332.57a162.42 162.42 0 00-54.89 3.88 2.22 2.22 0 01-.43.06 3.22 3.22 0 003.41 1.35 163.55 163.55 0 0151.71-4.19 3.2 3.2 0 01.1-.67zm277.14-52.1l-1.25 1.68A82.67 82.67 0 00400.58 323l-4.69 41.56 2.64 13.31 4.75-52.13a82.56 82.56 0 0114.92-41.36l1.21-1.72a8.32 8.32 0 00.29-9.16 8.29 8.29 0 01-1.45 6.97z" fill="#ffe3ac"/><path d="M141.11 332.57l.8-3.29A7.3 7.3 0 01151 324l1 .32 1.64-3a7.48 7.48 0 011.34-1.79c-18.1-3.4-40.78-4.27-67.37 1.39a8.14 8.14 0 00-6.18 10l.83 3.22a3.23 3.23 0 003.45 2.41 2.22 2.22 0 00.43-.06 162.42 162.42 0 0154.97-3.92zm254.78 31.93l4.69-41.5A82.67 82.67 0 01417 282.15l1.28-1.68a8.33 8.33 0 00-1.58-11.65l-2.33-1.77a3.6 3.6 0 00-5 .68l-4.13 5.42a97.32 97.32 0 00-19.33 48.14l-2.32 20.51z" fill="#ffc043"/><path d="M241.66 257.07c-.79-9.32-1.13-17-1.27-21.56a4.4 4.4 0 01.44-2 8.77 8.77 0 00-5.35-4.52 8.69 8.69 0 011.39 3.55c.89 5.75 2.39 14.26 4.79 24.53zm-77.96-56.59a3.61 3.61 0 00-3.8-3.14h-.12c1.84 12.59 8.73 45.84 32.11 72.07-21.17-26.72-26.89-58.67-28.19-68.93zm10.35 165.38v.61c1.11.27 2.27.57 3.46.88-1.14-.51-2.3-1-3.46-1.49zm125.05-81.81l.12-1c.15-1.25.31-2.48.47-3.7.05-.41.11-.83.17-1.24.19-1.42.4-2.84.61-4.23v-.17l.54-3.39-1.23-.41q-.63 7.37-.76 14.57c.04-.12.06-.27.08-.43zm-32.68-4.41c0-.45-.09-.9-.13-1.36-.1-1-.19-2-.27-2.95 0-.38-.07-.76-.1-1.13-.11-1.32-.21-2.63-.3-3.92v-.57c-.07-1.11-.14-2.21-.19-3.29v-.85l-1.72.12c.77 4.63 1.74 9.8 2.94 15.39zm-75.85 38.53a7.78 7.78 0 01-3-5.42c-.82 1.36-1.62 2.74-2.37 4.16 11.59 8 22.46 16.44 32.39 24.82a278.58 278.58 0 00-27.02-23.56z" fill="#ffe3ac"/><path d="M208 290.87a230.79 230.79 0 0129.65 29.71c-10.22-16.64-23.22-33.54-39.49-47.84l-.08-.08-1.33 1.85a100.72 100.72 0 008.26 7.32 8.74 8.74 0 012.99 9.04zm76.44 8.13a223.63 223.63 0 012-42.55 8 8 0 016.75-6.83c.16-1.82.33-3.46.49-4.9a7.75 7.75 0 00-6.39-8.5l-3.1-.53a4.16 4.16 0 00-3.72 1.23 256.67 256.67 0 003.97 62.08zm-131.99 50.89l.72-2.16a4.79 4.79 0 015.92-3.07l1.54.47a224.43 224.43 0 0121.18 7.87l-.68-.38-1.45-.79-2.58-1.37-1.1-.56q-2.4-1.23-4.81-2.37a163.48 163.48 0 00-27.63-10.21 3.31 3.31 0 01-.9-.39l-1.39 5.76a7.64 7.64 0 005.48 9.16c1.82.49 3.61 1 5.39 1.52a7.74 7.74 0 01.31-3.48zm83.33-58.42l-.54-1.64-.39-1.22c-.2-.61-.39-1.21-.58-1.82l-.39-1.25c-.18-.59-.37-1.17-.54-1.75-.13-.42-.25-.83-.38-1.24-.18-.59-.35-1.18-.52-1.77-.12-.38-.23-.77-.35-1.16 0-.15-.09-.3-.13-.45-1.11-3.79-2.11-7.47-3-11-.08-.34-.16-.67-.25-1-4.56-6.84-8.42-12.26-11.24-16.09a8.13 8.13 0 00-11.63-1.53l-1.4 1.13a4.82 4.82 0 00-.85 6.64l1.06 1.42a207.59 207.59 0 0131.13 32.73z" fill="#ab1300"/><path d="M208 290.87a8.74 8.74 0 00-3-9 100.72 100.72 0 01-8.26-7.32q-2.55-2.49-4.86-5.1c-23.38-26.23-30.27-59.48-32.11-72.07-.1-.65-.18-1.26-.25-1.8a3.62 3.62 0 00-3.8-3.14l-2 .13a8.83 8.83 0 00-8.16 10.24c2.21 13.69 8.4 39.65 25.15 63.83A187.16 187.16 0 01208 290.87z" fill="#ffc043"/><path d="M191.14 304.4a3.4 3.4 0 014.78-.77A284.77 284.77 0 01222 325.39c-3.63-4.13-7.52-8.26-11.68-12.32a185.4 185.4 0 00-36-27.71 6.82 6.82 0 00-8 3.59l-2 4.15a3.38 3.38 0 001.54 4.48c7.8 3.9 15.09 8 21.93 12.31a7.52 7.52 0 011.15-2.41zm-37.42 16.9l-1.64 3a188.65 188.65 0 0147.37 21.85 363.19 363.19 0 00-40.77-28.64 7.61 7.61 0 00-3.62 2 7.48 7.48 0 00-1.34 1.79zm87.94-64.23a339.66 339.66 0 0014.08 45.62q1 2.61 2.11 5.25a319.7 319.7 0 01-11.27-56.76 7.76 7.76 0 017.36-8.52l1.63-.08c-.09-1.75-.17-3.37-.22-4.78a7.17 7.17 0 00-7.24-6.88h-3.35a4.47 4.47 0 00-4.37 4.55c.14 4.61.48 12.28 1.27 21.6z" fill="#ab1300"/><path d="M232 279.17c.07.08 16.6 14.87 27.12 32.9-.43-1.39-.84-2.76-1.24-4.12q-1.1-2.64-2.11-5.25a339.66 339.66 0 01-14.08-45.62c-2.4-10.27-3.9-18.78-4.79-24.55a8.81 8.81 0 00-9.51-7.41l-1.64.16a4.65 4.65 0 00-4.17 5.23 326.08 326.08 0 007.16 36.67c.09.34.17.67.25 1 .87 3.52 1.87 7.2 3.01 10.99zm2.27 7.62l-.39-1.25zm-.93-3c-.13-.42-.25-.83-.38-1.24.13.45.25.82.38 1.24zm1.9 6.04l-.39-1.22zm-2.8-9.05c-.12-.38-.23-.77-.35-1.16.12.38.23.78.35 1.16zm89.43-18.67a123.66 123.66 0 001.13 14.28l6.38-4.19a.83.83 0 010-.15 7.52 7.52 0 00-4.82-9l-6.6-2.3z" fill="#ffc043"/><path d="M318 260.76c-3.15 15-6.16 35.23-5.54 56.26a103.77 103.77 0 007-38.3l3.54-2.33a123.66 123.66 0 01-1.13-14.28z" fill="#ff6937"/><path d="M265.09 258.38v-.57c-.01.19 0 .38 0 .57zm.13 4.19v-1.17c-.03.39-.01.78 0 1.17zm22.27 62.27a196 196 0 01-3.05-25.84 256.67 256.67 0 01-4-62.08c.19-3.14.4-5.85.61-8.06a7.13 7.13 0 00-6-7.72l-.58-.09-2.87-.47a4.4 4.4 0 00-5.07 3.82c-.24 2-.51 4.66-.76 7.84-.46 5.86-.84 13.56-.75 22.56.16.87 5.63 35.42 22.47 70.04zM266 275.33c0-.38-.07-.76-.1-1.13.1.37.1.8.1 1.13zm.42 4.31c0-.45-.09-.9-.13-1.36.04.46.09.91.13 1.36zm-.8-9.36v-.57c-.02.19-.01.37 0 .57zm-.28-5.07v1.21z" fill="#ffc043"/><path d="M265.4 266.42c.05 1.08.12 2.18.19 3.29v.57c.09 1.29.19 2.6.3 3.92 0 .37.06.75.1 1.13.08 1 .17 2 .27 2.95 0 .46.09.91.13 1.36l.15 1.44c4.31 20 11.72 45.25 24.36 69.82.87-.91 1.72-1.84 2.55-2.77a178.54 178.54 0 01-6-23.29c-16.84-34.62-22.31-69.17-22.45-70.08 0 1 0 2 .05 3.08v.57c0 1 .06 2 .09 3v1.17c0 .88.07 1.76.12 2.64z" fill="#ff6937"/><path d="M301.39 268.35zm.77-4.23zm-2.94 18.97zm1.99-13.67c-.06.31-.11.62-.17.94l-.54 3.39c.23-1.47.5-2.91.71-4.33zm10.36 49.82c.31-.73.6-1.48.89-2.22-.62-21 2.39-41.3 5.54-56.26.54-2.58 1.09-5 1.62-7.25a8.12 8.12 0 00-5.78-9.73l-2.35-.63a4.38 4.38 0 00-5.39 3.15c-1 4.08-2.11 8.68-3.13 13.69.03.3.41 40.67 8.6 59.25zm-12.52-34.72v.07c0-.18 0-.36.05-.54-.02.16-.04.31-.05.47zm.81-6.37z" fill="#ffc043"/><path d="M300.5 273.75v.17c-.21 1.39-.42 2.81-.61 4.23-.06.41-.12.83-.17 1.24-.16 1.22-.32 2.45-.47 3.7l-.12 1c0 .18 0 .36-.05.54a181.43 181.43 0 005.49 48.55 101.77 101.77 0 007-13.9c-8.19-18.58-8.6-58.95-8.6-59.25v.14c-.26 1.31-.52 2.64-.78 4-.06.28-.11.57-.16.86-.21 1.11-.41 2.23-.61 3.37l-.18 1.07c-.24 1.37-.51 2.81-.74 4.28z" fill="#ff6937"/><path d="M171.19 347.54l-.79-.38c4.35.21 27 6.93 45 12.46-5-4.45-10.38-9-16-13.45a188.65 188.65 0 00-47.37-21.85l-1-.32a7.3 7.3 0 00-9.13 5.28l-.8 3.29-.1.43a3.2 3.2 0 00-.1.67 3.6 3.6 0 001.75 3.27 3.31 3.31 0 00.9.39 163.48 163.48 0 0127.64 10.21zm9.94 5.09l-1.45-.79zm-4.03-2.16l-1.1-.56z" fill="#ffc043"/><path d="M215.41 359.62c-18-5.53-40.66-12.25-45-12.46l.79.38q2.42 1.14 4.81 2.37l1.1.56 2.58 1.37 1.45.79.68.38a265.39 265.39 0 0150 28.59c2-.29 4-.65 5.92-1.06a518.223 518.223 0 00-22.33-20.92z" fill="#ff6937"/><path d="M210.3 313.07c8.13 4.29 22.93 12.58 35.81 22.33-2.58-4.86-5.39-9.83-8.46-14.82A230.79 230.79 0 00208 290.87a187.16 187.16 0 00-37.33-24.27c-.77-.38-1.54-.76-2.33-1.13a3.83 3.83 0 00-5.14 1.92l-1.2 2.68a8.27 8.27 0 003.86 10.71q4.31 2.18 8.42 4.58a185.4 185.4 0 0136.02 27.71z" fill="#ffc043"/><path d="M246.11 335.4c-12.88-9.75-27.68-18-35.81-22.33 4.16 4.06 8 8.19 11.68 12.32a338.85 338.85 0 0139.86 45 300 300 0 00-15.73-34.99z" fill="#ff6937"/><path d="M286.4 256.41a223.63 223.63 0 00-2 42.55 196 196 0 003.05 25.88 178.54 178.54 0 006 23.29 102.85 102.85 0 0011.06-15 181.43 181.43 0 01-5.49-48.55v-.07q.12-7.2.76-14.57c.46-5.16 1.09-10.36 1.92-15.62a3.44 3.44 0 00-2.61-3.9l-3.84-.89a8.4 8.4 0 00-2.13 0 8 8 0 00-6.72 6.88zm-86.95 89.76c5.58 4.49 10.91 9 16 13.45 8.26 7.29 15.75 14.39 22.31 20.92q4.41-.93 8.75-2.25c-9.46-13.5-17.06-24.14-17.07-24.16q-5.62-6.22-11.85-12.4c-9.93-8.38-20.8-16.83-32.39-24.82-8.31-5.73-17-11.22-26-16.26a7.22 7.22 0 00-9.91 2.94l-1.93 3.66a3.42 3.42 0 001.4 4.6q5 2.73 9.94 5.68a363.19 363.19 0 0140.75 28.64z" fill="#ffc043"/><path d="M190.57 318.17a278.58 278.58 0 0127 23.56q6.22 6.16 11.85 12.4a109.2 109.2 0 0130.34 19.07c.9-.42 1.79-.84 2.67-1.29-.18-.5-.37-1-.56-1.52a338.85 338.85 0 00-39.86-45 284.77 284.77 0 00-26.06-21.76 3.4 3.4 0 00-4.78.77l-2.21 3.08a7.78 7.78 0 00-1.4 5.27 7.78 7.78 0 003.01 5.42z" fill="#ffc043"/><path d="M229.39 354.13s7.61 10.66 17.07 24.16a101.92 101.92 0 0013.26-5.09 109.2 109.2 0 00-30.33-19.07zm49.86 20.59l.77-.87-.87.58zm-20.16-62.65c-10.52-18-27-32.82-27.12-32.9 0 .15.09.3.13.45.12.39.23.78.35 1.16.17.59.34 1.18.52 1.77.13.41.25.82.38 1.24.17.58.36 1.16.54 1.75l.39 1.25c.19.61.38 1.21.58 1.82l.39 1.22.54 1.64c19.6 25.48 32.19 52.71 39.7 72.66q2-1.42 4-2.94a274.59 274.59 0 01-20.4-49.12z" fill="#ff6937"/><path d="M246.58 251.19A319.7 319.7 0 00257.85 308c.4 1.36.81 2.73 1.24 4.12a274.59 274.59 0 0020.38 49.12 102.55 102.55 0 0011.46-10.29c-12.64-24.57-20.05-49.84-24.36-69.82-1.2-5.59-2.17-10.76-2.94-15.39-1.56-9.41-2.31-16.57-2.64-20.34a3.13 3.13 0 00-3.27-2.86l-2.15.1-1.63.08a7.76 7.76 0 00-7.36 8.47zm-8.93 69.39c3.07 5 5.88 10 8.46 14.82a300 300 0 0115.73 35c.19.51.38 1 .56 1.52a102.33 102.33 0 0010.6-6.09c.84-.55 1.66-1.12 2.48-1.69-7.51-19.95-20.1-47.18-39.7-72.66a207.59 207.59 0 00-31.13-32.73l-.1-.08a3.83 3.83 0 00-5.45.54l-1.89 2.36a8.12 8.12 0 00.87 11.1l.08.08c16.27 14.25 29.27 31.19 39.49 47.83zm41.16 54.09l-.9.57 1.25-.41.09-.11-.1-.29zm-55.64 4.16q2.54 1.64 5 3.26c1.21-.14 2.43-.3 3.64-.49a265.39 265.39 0 00-50-28.59 224.43 224.43 0 00-21.18-7.88l-1.54-.47a4.79 4.79 0 00-5.92 3.07l-.72 2.16a7.8 7.8 0 005.06 9.85l2 .64c2.93 1 5.84 2 8.76 3.15 12-.3 32.21 6.58 54.9 15.3z" fill="#ffc043"/><path d="M216.56 382.75a104.76 104.76 0 0011.6-.66q-2.46-1.62-5-3.26c-22.69-8.72-42.9-15.6-54.9-15.3 1.93.75 3.85 1.53 5.78 2.33 1.16.49 2.32 1 3.48 1.49a183.57 183.57 0 0139.04 15.4z" fill="#ff6937"/><path d="M216.56 382.75a183.57 183.57 0 00-39-15.4c-1.19-.31-2.35-.61-3.46-.88-3.54-.86-6.69-1.51-9.33-2a8.39 8.39 0 00-9.83 7.64l-.18 2.38a3.71 3.71 0 003.15 3.94c1.89.27 4.51.71 7.71 1.38l9-5.93a103.74 103.74 0 0041.94 8.87z" fill="#ffc043"/><path d="M342 276.54l.65-.41 10.24 20.7 29 58.69 1.55-13.72-38.9-71.35-6.54-3.89 4.72 9.55zm53.89 87.97v-.01l-1.76 15.61L411.38 415h12.05l-23.67-43.4z" fill="#ffe3ac"/><path d="M383.51 341.8l-1.55 13.72 12.17 24.59 1.76-15.61z" fill="#ff6937"/><path d="M260.76 384.34a113 113 0 01-79.84 3.3 38.65 38.65 0 01-5.16-1.82l-7.51 4.93-5.25 3.43L180.68 415h70.44a310 310 0 019.64-30.66zm133.37-4.23L382 355.52l-29-58.69-10.24-20.7 3.22 6.51c-22.81 36.76-32 73.11-33.82 105.6A33.09 33.09 0 01342 415h69.39z" fill="#e11900"/><path d="M306 388.32a32.58 32.58 0 016.08-.08c1.87-32.49 11-68.84 33.82-105.6l-3.22-6.51-.65.41-12.03 7.95a.49.49 0 000 .12q0 1.26-.15 2.58A113.18 113.18 0 01280 373.85l-.77.87-.09.11-1.25.41a114.27 114.27 0 01-17.15 9.1 310 310 0 00-9.62 30.66H277a33.1 33.1 0 0129-26.68z" fill="#ff6937"/><path d="M175.76 385.82c1.71.65 3.43 1.25 5.16 1.82a113 113 0 0079.84-3.3 114.27 114.27 0 0017.15-9.1l.9-.57.34-.24.87-.58a113.18 113.18 0 0049.77-86.66q.09-1.29.15-2.58a.49.49 0 010-.12l12.06-7.95.64-.42-4.64-9.55-8.57 5.64-6.43 4.18-3.54 2.33a103.77 103.77 0 01-7 38.3c-.29.74-.58 1.49-.89 2.22a101.77 101.77 0 01-7 13.9 102.85 102.85 0 01-11.06 15c-.83.93-1.68 1.86-2.55 2.77a102.55 102.55 0 01-11.46 10.29q-2 1.51-4 2.94c-.82.57-1.64 1.14-2.48 1.69a102.33 102.33 0 01-10.6 6.09c-.88.45-1.77.87-2.67 1.29a101.92 101.92 0 01-13.26 5.09q-4.33 1.32-8.75 2.25c-2 .41-3.94.77-5.92 1.06-1.21.19-2.43.35-3.64.49a103.48 103.48 0 01-53.54-8.19l-9 5.93-9.46 6.22 6.89 8.14 5.22-3.43zm136.33 2.42a32.58 32.58 0 00-6.08.08A33.1 33.1 0 00277 415h65a33.09 33.09 0 00-29.91-26.76z" fill="#ffc043"/><path d="M188.63 45.76v.07A176 176 0 00204.14 56a4.19 4.19 0 011.56 5.64l-1.16 2.11a8.15 8.15 0 01-8.29 4.12l.53.33a8.14 8.14 0 0011.35-3l1.16-2.11a4.19 4.19 0 00-1.56-5.63A172.78 172.78 0 01189.18 45l-.55.75zM148.78 3a132.14 132.14 0 008.07 11.84 148.84 148.84 0 0018.35 20c.27-.39.55-.76.83-1.15a149 149 0 01-15.6-17.44 135.52 135.52 0 01-8.06-11.84c-.32-.54-.64-1.07-.94-1.59-.57-1-1.1-1.92-1.62-2.86H147l.82 1.44c.33.6.64 1.09.96 1.6zm20.06 61.75q-3.65 3.44-7.07 6.24a117 117 0 01-19.87 13.44 3.78 3.78 0 01-1.1.34 3.55 3.55 0 003.58.18 115.64 115.64 0 0019.87-13.44q3.42-2.81 7.07-6.24 3.83-3.6 7.78-7.94c-.59-.43-1.19-.87-1.77-1.31-2.87 3.2-5.72 6.1-8.49 8.73zm19.74-18.92v-.07z" fill="#ffe3ac"/><path d="M186.78 44.39l1.85 1.37.55-.75A172.33 172.33 0 00212.74 0h-2.66a172.49 172.49 0 01-23.3 44.39z" fill="#ffe3ac"/><path d="M165.79 46.51c1.47-1.63 3-3.35 4.46-5.2 1.64-2 3.29-4.16 4.95-6.43a148.84 148.84 0 01-18.35-20A132.14 132.14 0 01148.78 3c-.32-.53-.63-1.07-.94-1.58L147 0h-16.84q1.84 3.83 4.24 8a156.15 156.15 0 0031.39 38.51zm38.75 17.24l1.16-2.11a4.19 4.19 0 00-1.56-5.64 176 176 0 01-15.56-10.17c-3.13 4.19-6.29 8-9.43 11.45L177.38 56v.05c.58.44 1.18.88 1.77 1.31q6.56 4.85 14.1 9.45a8.15 8.15 0 0011.34-3z" fill="#ffc043"/><path d="M105.74 37.07a8.14 8.14 0 01-9 7.52c-35.54-4-61.08-16.6-78.06-28.66q-4.08-2.89-7.5-5.71C9.21 8.64 7.43 7.09 5.79 5.61c2.35 2.27 5.09 4.72 8.23 7.28q3.42 2.81 7.5 5.71C38.5 30.66 64 43.24 99.58 47.26a8.14 8.14 0 009-7.51l.16-2.4a4.18 4.18 0 00-3.05-4.35 4.15 4.15 0 01.22 1.65z" fill="#ffe3ac"/><path d="M5.79 5.61c1.64 1.48 3.42 3 5.37 4.61q3.42 2.8 7.5 5.71C35.64 28 61.18 40.57 96.72 44.59a8.14 8.14 0 009-7.52l.17-2.4a4.19 4.19 0 00-3.78-4.45c-25.69-2.4-45.66-9.75-60.2-17.47a131.54 131.54 0 01-12.27-7.37c-.52-.34-1-.7-1.52-1C26 2.88 24.07 1.43 22.25 0H0c1.67 1.73 3.59 3.61 5.79 5.61z" fill="#ffc043"/><path d="M188.58 45.83v-.07l-1.85-1.37a155.88 155.88 0 01-9.4 11.58l1.77 1.31c3.19-3.46 6.35-7.28 9.48-11.45z" fill="#ff6937"/><path d="M175.2 34.88c-1.66 2.27-3.31 4.42-4.95 6.43-1.5 1.85-3 3.57-4.46 5.2q-2.65 2.94-5.16 5.42c-.44.44-.89.87-1.31 1.28a116.93 116.93 0 01-20.48 15.88 8.14 8.14 0 00-3.31 10.19l1.47 3.36a3.58 3.58 0 003.85 2.13 3.78 3.78 0 001.1-.34A117 117 0 00161.77 71q3.42-2.8 7.07-6.24c2.77-2.63 5.62-5.53 8.49-8.73v-.05c3.13-3.5 6.29-7.35 9.4-11.58A172.49 172.49 0 00210.08 0h-15.9A157.86 157.86 0 01176 33.73c-.25.39-.53.76-.8 1.15z" fill="#ffc043"/><path d="M90.72 371.78A117.14 117.14 0 0074.9 392.3l-1 1.58a132.61 132.61 0 00-6.64 12.69 144.95 144.95 0 00-3.53 8.43h2.88q1.23-3 2.51-5.82a132.86 132.86 0 016.64-12.7l1-1.58a117.38 117.38 0 0115.82-20.51 8.15 8.15 0 00.64-10.7l-1.13-1.47a8.15 8.15 0 01-1.37 9.56z" fill="#ffe3ac"/><path d="M68.05 375.71c-1.73 2.39-3.5 5-5.27 7.82A152.76 152.76 0 0047.88 415h15.9c1.14-3 2.32-5.79 3.53-8.43A132.61 132.61 0 0174 393.88l1-1.58a117.14 117.14 0 0115.82-20.52 8.15 8.15 0 001.37-9.56 8 8 0 00-.73-1.13l-2.22-2.9a3.59 3.59 0 00-5.24-.49 116.28 116.28 0 00-15.95 18.01z" fill="#ffc043"/><path d="M451.82 415h.2l-.35-.24c.04.08.1.16.15.24z" fill="#ffe3ac"/><path d="M483.35 341.17c-4.75 0-9.63-1.27-13.91.12-4.44 1.44-7.64 5.39-11.33 8.08s-8.46 4.55-11.17 8.28-3 8.75-4.43 13.18-4.17 8.53-4.17 13.28 2.78 9 4.17 13.27c1.44 4.43 1.74 9.49 4.43 13.18a17.36 17.36 0 004.73 4.2l.35.24h7.82a38.82 38.82 0 0135.94-67.67v-6.41c-3.91-.74-8.23.25-12.43.25z" fill="#fff"/><path d="M444.52 384.11A38.75 38.75 0 00459.84 415h11.44a33.17 33.17 0 0112.07-64.06 32.93 32.93 0 0112.43 2.42v-6a38.81 38.81 0 00-51.26 36.78zM495.78 415v-.14l-.37.14z" fill="#ffd7d2"/><path d="M450.18 384.11a33.11 33.11 0 0014.32 27.29 33.18 33.18 0 0127.31-52 34.82 34.82 0 014 .26v-6.29a33.16 33.16 0 00-45.6 30.75z" fill="#5a0a00"/><path d="M458.64 392.56a33 33 0 005.86 18.84 33.34 33.34 0 006.78 3.6h24.13l.37-.14v-55.21a34.82 34.82 0 00-4-.26 33.18 33.18 0 00-33.14 33.17z" fill="#870f00"/><path d="M328.71 0a184.77 184.77 0 01-10.51 20.62 189.31 189.31 0 01-24.45 32.2l-.76.81-2.45-2.63A189.72 189.72 0 00315 18.84 188.56 188.56 0 00324.64 0z" fill="#ffd7d2"/><path d="M327.79 2.1l-2-2.1h-1.17l-.51 1.13 2.77 2.93c.33-.67.63-1.32.91-1.96zM310 26.68l-1.15 1.69 2.56 2.71c.39-.55.77-1.12 1.16-1.68z" fill="#ff6937"/></svg>